{"title":"The Jungle Book 2016 HD TC X264 UNiQUE","uid":14437615,"size":1543570479,"categoryP":"video","categoryS":"movies","magnet":"?xt=urn:btih:fe9113c7e0d3480cae73bb25ebaf502461fa1389&amp;dn=The+Jungle+Book+2016+HD+TC+X264+UNiQUE+++&amp;tr=udp%3A%2F%2Ftracker.leechers-paradise.org%3A6969&amp;tr=udp%3A%2F%2Fzer0day.ch%3A1337&amp;tr=udp%3A%2F%2Fopen.demonii.com%3A1337&amp;tr=udp%3A%2F%2Ftracker.coppersurfer.tk%3A6969&amp;tr=udp%3A%2F%2Fexodus.desync.com%3A6969","seeders":1,"leechers":4,"uploader":"makintos13","files":2,"time":1461644713,"description":"The Jungle Book 2016 HD TC X264 UNiQUE   \r\n\r\nScreenS:\r\n \nhttps://imgmak.com/TmQ\r\n \nhttps://imgmak.com/TmS\r\n \nhttps://imgmak.com/TmZ\r\n \nhttps://imgmak.com/Tmc\r\n \nhttps://imgmak.com/Tmn\r\n \nhttps://imgmak.com/Tmr\r\n \nhttps://imgmak.com/TmB\r\n\r\nFormat                      : Matroska\r\nFile size                   : 1.42 GiB\r\nDuration                    : 1h 45mn\r\nOverall bit rate            : 1 927 Kbps\r\n\r\nVideo\r\nID                          : 1\r\nFormat                      : AVC\r\nFormat/Info                 : Advanced Video Codec\r\nFormat profile              :   \r\nFormat settings, CABAC      : Yes\r\nFormat settings, ReFrames   : 4 frames\r\nCodec ID                    : V_MPEG4/ISO/AVC\r\nDuration                    : 1h 45mn\r\nBit rate                    : 1 800 Kbps\r\nWidth                       : 720 pixels\r\nHeight                      : 384 pixels\r\nDisplay aspect ratio        : 1.85:1\r\nFrame rate mode             : Constant\r\nFrame rate                  : 23.976 (24000/1001) fps\r\nColor space                 : YUV\r\nChroma subsampling          : 4:2:0\r\nBit depth                   : 8 bits\r\nScan type                   : Progressive\r\nBits/(Pixel*Frame)          : 0.272\r\nStream size                 : 1.33 GiB (93%)\r\n\r\n\r\nAudio\r\nID                          : 2\r\nFormat                      : MPEG Audio\r\nFormat version              : Version 1\r\nFormat profile              : Layer 3\r\nCodec ID                    : A_MPEG/L3\r\nCodec ID/Hint               : MP3\r\nDuration                    : 1h 45mn\r\nBit rate mode               : Constant\r\nBit rate                    : 128 Kbps\r\nChannel(s)                  : 2 channels\r\nSampling rate               : 44.1 KHz\r\nFrame rate                  : 38.281 fps (1152 spf)\r\nCompression mode            : Lossy\r\nDelay relative to video     : 1s 600ms\r\nStream size                 : 96.7 MiB (7%)\r\nDefault                     : Yes\r\nForced                      : No\r\n\r\n\r\nSource\r\nVideo:720pTCmp4ba\r\nAudio: CPG\r\n \nhttp://www.imdb.com/title/tt3040964/\r\n\r\nThe man-cub Mowgli flees the jungle after a threat from the tiger Shere Khan. Guided by Bagheera the panther and the bear Baloo, Mowgli embarks on a journey of self-discovery, though he also meets creatures who don't have his best interests at heart","torrent":{"xt":"urn:btih:fe9113c7e0d3480cae73bb25ebaf502461fa1389","amp;dn":"The+Jungle+Book+2016+HD+TC+X264+UNiQUE+++","amp;tr":["udp%3A%2F%2Ftracker.leechers-paradise.org%3A6969","udp%3A%2F%2Fzer0day.ch%3A1337","udp%3A%2F%2Fopen.demonii.com%3A1337","udp%3A%2F%2Ftracker.coppersurfer.tk%3A6969","udp%3A%2F%2Fexodus.desync.com%3A6969"],"infoHash":"fe9113c7e0d3480cae73bb25ebaf502461fa1389","infoHashBuffer":{"type":"Buffer","data":[254,145,19,199,224,211,72,12,174,115,187,37,235,175,80,36,97,250,19,137]},"announce":[],"urlList":[]}}